<svg xmlns="http://www.w3.org/2000/svg" width="173" height="69" viewBox="0 0 173 69" fill="none">
  <g mask="url(#mask0_1_40)">
    <g opacity="0.95">
      <circle cx="94.2504" cy="60.8421" r="13.65" transform="rotate(-3.84411 94.2504 60.8421)" fill="white"/>
      <circle cx="113.184" cy="51.7523" r="13.65" transform="rotate(-3.84411 113.184 51.7523)" fill="white"/>
      <circle cx="114.229" cy="67.3172" r="13.65" transform="rotate(-3.84411 114.229 67.3172)" fill="white"/>
      <circle cx="130.307" cy="54.5106" r="13.65" transform="rotate(-3.84411 130.307 54.5106)" fill="white"/>
      <circle cx="137.664" cy="67.0455" r="13.65" transform="rotate(-3.84411 137.664 67.0455)" fill="white"/>
      <circle cx="151.322" cy="57.0073" r="13.65" transform="rotate(-3.84411 151.322 57.0073)" fill="white"/>
    </g>
    <g opacity="0.6">
      <circle cx="106.091" cy="43.1957" r="13.65" transform="rotate(-3.84411 106.091 43.1957)" fill="white"/>
      <circle cx="125.024" cy="34.106" r="13.65" transform="rotate(-3.84411 125.024 34.106)" fill="white"/>
      <circle cx="126.07" cy="49.6709" r="13.65" transform="rotate(-3.84411 126.07 49.6709)" fill="white"/>
      <circle cx="142.148" cy="36.8642" r="13.65" transform="rotate(-3.84411 142.148 36.8642)" fill="white"/>
      <circle cx="149.505" cy="49.3992" r="13.65" transform="rotate(-3.84411 149.505 49.3992)" fill="white"/>
      <circle cx="163.162" cy="39.3609" r="13.65" transform="rotate(-3.84411 163.162 39.3609)" fill="white"/>
    </g>
  </g>
</svg>