<svg xmlns="http://www.w3.org/2000/svg" width="173" height="69" viewBox="0 0 173 69" fill="none">
  <g mask="url(#mask0_1_40)">
    <g opacity="0.95">
      <circle cx="26.1572" cy="73.0981" r="13.65" transform="rotate(-3.84411 26.1572 73.0981)" fill="white"/>
      <circle cx="45.0904" cy="64.0083" r="13.65" transform="rotate(-3.84411 45.0904 64.0083)" fill="white"/>
      <circle cx="46.1363" cy="79.5732" r="13.65" transform="rotate(-3.84411 46.1363 79.5732)" fill="white"/>
      <circle cx="62.2139" cy="66.7665" r="13.65" transform="rotate(-3.84411 62.2139 66.7665)" fill="white"/>
      <circle cx="69.5708" cy="79.3015" r="13.65" transform="rotate(-3.84411 69.5708 79.3015)" fill="white"/>
      <circle cx="83.2286" cy="69.2632" r="13.65" transform="rotate(-3.84411 83.2286 69.2632)" fill="white"/>
    </g>
    <g opacity="0.6">
      <circle cx="48.417" cy="64.9256" r="13.65" transform="rotate(-4.59401 48.417 64.9256)" fill="white"/>
      <circle cx="67.2297" cy="55.5888" r="13.65" transform="rotate(-4.59401 67.2297 55.5888)" fill="white"/>
      <circle cx="68.4792" cy="71.1387" r="13.65" transform="rotate(-4.59401 68.4792 71.1387)" fill="white"/>
      <circle cx="84.3877" cy="58.1227" r="13.65" transform="rotate(-4.59401 84.3877 58.1227)" fill="white"/>
      <circle cx="91.9081" cy="70.5603" r="13.65" transform="rotate(-4.59401 91.9081 70.5603)" fill="white"/>
      <circle cx="105.433" cy="60.3442" r="13.65" transform="rotate(-4.59401 105.433 60.3442)" fill="white"/>
    </g>
  </g>
</svg>